<svg width="300" height="72" viewBox="0 0 300 72" fill="none" xmlns="http://www.w3.org/2000/svg">
    <style>
        path {
        fill: black;
        }
        @media (prefers-color-scheme: dark) {
        path { fill: white; }
        }
    </style>
    <path
        d="M299.321 4.75683C299.551 4.78989 299.765 4.62983 299.798 4.39931C299.831 4.1688 299.671 3.95514 299.44 3.92208L299.321 4.75683ZM0.28109 67.5545C35.758 73.7672 60.9903 71.3324 81.6937 64.5682C102.383 57.8087 118.526 46.7301 135.793 35.7283C153.069 24.7215 171.5 13.7691 196.827 7.16923C222.156 0.569318 254.409 -1.68436 299.321 4.75683L299.44 3.92208C254.443 -2.53132 222.074 -0.2809 196.615 6.35318C171.155 12.9873 152.634 23.9987 135.34 35.017C118.039 46.0402 101.997 57.0477 81.4318 63.7666C60.8813 70.4809 35.7916 72.9169 0.426552 66.7239L0.28109 67.5545Z" />
</svg>